/* XPM */
static char *_4a8122ecc104828fced8c2fbb46a231KLtvz8XAbHgn4jly[] = {
/* columns rows colors chars-per-pixel */
"107 127 32 1 ",
"  c None",
". c #2B1F22",
"X c #56300C",
"o c #295414",
"O c #3D731E",
"+ c #514727",
"@ c #705C2A",
"# c #72594C",
"$ c #6C5755",
"% c #776848",
"& c #767678",
"* c #8C521B",
"= c #84604D",
"- c #8B7873",
"; c #A07F62",
": c #64992C",
"> c #97C83D",
", c #A48E44",
"< c #C39F79",
"1 c #C2B869",
"2 c #918A8C",
"3 c #A08E88",
"4 c #B3A19A",
"5 c #B7B7BB",
"6 c #D8BEA0",
"7 c #D4D19D",
"8 c #EBDAB7",
"9 c gray85",
"0 c #D9D9DD",
"q c #FBF0CA",
"w c gray95",
"e c white",
/* pixels */
"                                                                                                           ",
"                                                                                                           ",
"                                                                                                           ",
"                                                                                                           ",
"                                                @@@@                                                       ",
"                                                @@@@                                                       ",
"                                                @@@@                                                       ",
"                                                @@@@                                                       ",
"                            @@@@@@@@@@@@@@@@    @@@@@@@@        @@@@@@@@@@@@                               ",
"                            @@@@@@@@@@@@@@@@    @@@@@@@@        @@@@@@@@@@@@                               ",
"                            @@@@@@@@@@@@@@@@    @@@@@@@@        @@@@@@@@@@@@                               ",
"                            @@@@@@@@@@@@@@@@    @@@@@@@@        @@@@@@@@@@@@                               ",
"                                @@@@,,,,1111@@@@@@@@,,,,@@@@@@@@1111,,,,,,,,@@@@                           ",
"                                @@@@,,,,1111@@@@@@@@,,,,@@@@@@@@1111,,,,,,,,@@@@                           ",
"                                @@@@,,,,1111@@@@@@@@,,,,@@@@@@@@1111,,,,,,,,@@@@                           ",
"                                @@@@,,,,1111@@@@@@@@,,,,@@@@@@@@1111,,,,,,,,@@@@                           ",
"                        @@@@@@@@@@@@@@@@,,,,1111,,,,1111,,,,1111,,,,@@@@@@@@                               ",
"                        @@@@@@@@@@@@@@@@,,,,1111,,,,1111,,,,1111,,,,@@@@@@@@                               ",
"                        @@@@@@@@@@@@@@@@,,,,1111,,,,1111,,,,1111,,,,@@@@@@@@                               ",
"                        @@@@@@@@@@@@@@@@,,,,1111,,,,1111,,,,1111,,,,@@@@@@@@                               ",
"                @@@@@@@@,,,,,,,,1111111177771111111177771111111177771111,,,,@@@@@@@@@@@@                   ",
"                @@@@@@@@,,,,,,,,1111111177771111111177771111111177771111,,,,@@@@@@@@@@@@                   ",
"                @@@@@@@@,,,,,,,,1111111177771111111177771111111177771111,,,,@@@@@@@@@@@@                   ",
"                @@@@@@@@,,,,,,,,1111111177771111111177771111111177771111,,,,@@@@@@@@@@@@                   ",
"            @@@@,,,,,,,,11111111111177771111111111117777777711111111777711111111,,,,,,,,@@@@               ",
"            @@@@,,,,,,,,11111111111177771111111111117777777711111111777711111111,,,,,,,,@@@@               ",
"            @@@@,,,,,,,,11111111111177771111111111117777777711111111777711111111,,,,,,,,@@@@               ",
"            @@@@,,,,,,,,11111111111177771111111111117777777711111111777711111111,,,,,,,,@@@@               ",
"                @@@@@@@@,,,,111177777777111111111111111111111111111177777777111111111111,,,,@@@@           ",
"                @@@@@@@@,,,,111177777777111111111111111111111111111177777777111111111111,,,,@@@@           ",
"                @@@@@@@@,,,,111177777777111111111111111111111111111177777777111111111111,,,,@@@@           ",
"                @@@@@@@@,,,,111177777777111111111111111111111111111177777777111111111111,,,,@@@@           ",
"                @@@@,,,,11111111111177771111111111111111111111111111777711111111,,,,@@@@@@@@               ",
"                @@@@,,,,11111111111177771111111111111111111111111111777711111111,,,,@@@@@@@@               ",
"                @@@@,,,,11111111111177771111111111111111111111111111777711111111,,,,@@@@@@@@               ",
"                @@@@,,,,11111111111177771111111111111111111111111111777711111111,,,,@@@@@@@@               ",
"            @@@@,,,,1111111111111111111177771111111177777777111177771111111111111111,,,,@@@@@@@@           ",
"            @@@@,,,,1111111111111111111177771111111177777777111177771111111111111111,,,,@@@@@@@@           ",
"            @@@@,,,,1111111111111111111177771111111177777777111177771111111111111111,,,,@@@@@@@@           ",
"            @@@@,,,,1111111111111111111177771111111177777777111177771111111111111111,,,,@@@@@@@@           ",
"            @@@@11111111,,,,,,,,111111111111,,,,777777771111,,,,111111111111,,,,11111111,,,,,,,,@@@@       ",
"            @@@@11111111,,,,,,,,111111111111,,,,777777771111,,,,111111111111,,,,11111111,,,,,,,,@@@@       ",
"            @@@@11111111,,,,,,,,111111111111,,,,777777771111,,,,111111111111,,,,11111111,,,,,,,,@@@@       ",
"            @@@@11111111,,,,,,,,111111111111,,,,777777771111,,,,111111111111,,,,11111111,,,,,,,,@@@@       ",
"        @@@@11111111,,,,,,,,111111111111,,,,@@@@11111111,,,,@@@@,,,,111111111111,,,,@@@@,,,,,,,,,,,,@@@@   ",
"        @@@@11111111,,,,,,,,111111111111,,,,@@@@11111111,,,,@@@@,,,,111111111111,,,,@@@@,,,,,,,,,,,,@@@@   ",
"        @@@@11111111,,,,,,,,111111111111,,,,@@@@11111111,,,,@@@@,,,,111111111111,,,,@@@@,,,,,,,,,,,,@@@@   ",
"        @@@@11111111,,,,,,,,111111111111,,,,@@@@11111111,,,,@@@@,,,,111111111111,,,,@@@@,,,,,,,,,,,,@@@@   ",
"    @@@@@@@@@@@@@@@@@@@@,,,,11111111,,,,@@@@@@@@1111,,,,@@@@8888@@@@,,,,11111111,,,,,,,,@@@@@@@@@@@@       ",
"    @@@@@@@@@@@@@@@@@@@@,,,,11111111,,,,@@@@@@@@1111,,,,@@@@8888@@@@,,,,11111111,,,,,,,,@@@@@@@@@@@@       ",
"    @@@@@@@@@@@@@@@@@@@@,,,,11111111,,,,@@@@@@@@1111,,,,@@@@8888@@@@,,,,11111111,,,,,,,,@@@@@@@@@@@@       ",
"    @@@@@@@@@@@@@@@@@@@@,,,,11111111,,,,@@@@@@@@1111,,,,@@@@8888@@@@,,,,11111111,,,,,,,,@@@@@@@@@@@@       ",
"            @@@@@@@@,,,,11111111,,,,@@@@8888@@@@,,,,@@@@888888888888@@@@,,,,11111111,,,,,,,,@@@@           ",
"            @@@@@@@@,,,,11111111,,,,@@@@8888@@@@,,,,@@@@888888888888@@@@,,,,11111111,,,,,,,,@@@@           ",
"            @@@@@@@@,,,,11111111,,,,@@@@8888@@@@,,,,@@@@888888888888@@@@,,,,11111111,,,,,,,,@@@@           ",
"            @@@@@@@@,,,,11111111,,,,@@@@8888@@@@,,,,@@@@888888888888@@@@,,,,11111111,,,,,,,,@@@@           ",
"            @@@@,,,,,,,,1111,,,,@@@@++++++++++++@@@@qqqqqqqq++++++++++++@@@@,,,,1111@@@@,,,,@@@@           ",
"            @@@@,,,,,,,,1111,,,,@@@@++++++++++++@@@@qqqqqqqq++++++++++++@@@@,,,,1111@@@@,,,,@@@@           ",
"            @@@@,,,,,,,,1111,,,,@@@@++++++++++++@@@@qqqqqqqq++++++++++++@@@@,,,,1111@@@@,,,,@@@@           ",
"            @@@@,,,,,,,,1111,,,,@@@@++++++++++++@@@@qqqqqqqq++++++++++++@@@@,,,,1111@@@@,,,,@@@@           ",
"            @@@@,,,,@@@@,,,,@@@@88889999....0000qqqqqqqqqqqq0000....99998888@@@@,,,,@@@@,,,,@@@@           ",
"            @@@@,,,,@@@@,,,,@@@@88889999....0000qqqqqqqqqqqq0000....99998888@@@@,,,,@@@@,,,,@@@@           ",
"            @@@@,,,,@@@@,,,,@@@@88889999....0000qqqqqqqqqqqq0000....99998888@@@@,,,,@@@@,,,,@@@@           ",
"            @@@@,,,,@@@@,,,,@@@@88889999....0000qqqqqqqqqqqq0000....99998888@@@@,,,,@@@@,,,,@@@@           ",
"            @@@@@@@@6666%%%%66668888wwww....2222qqqqqqqqqqqq2222....wwww88886666%%%%6666@@@@@@@@           ",
"            @@@@@@@@6666%%%%66668888wwww....2222qqqqqqqqqqqq2222....wwww88886666%%%%6666@@@@@@@@           ",
"            @@@@@@@@6666%%%%66668888wwww....2222qqqqqqqqqqqq2222....wwww88886666%%%%6666@@@@@@@@           ",
"            @@@@@@@@6666%%%%66668888wwww....2222qqqqqqqqqqqq2222....wwww88886666%%%%6666@@@@@@@@           ",
"            @@@@    %%%%%%%%66668888eeeeXXXXXXXXqqqqqqqqqqqqXXXXXXXXeeee88886666%%%%%%%%    @@@@           ",
"            @@@@    %%%%%%%%66668888eeeeXXXXXXXXqqqqqqqqqqqqXXXXXXXXeeee88886666%%%%%%%%    @@@@           ",
"            @@@@    %%%%%%%%66668888eeeeXXXXXXXXqqqqqqqqqqqqXXXXXXXXeeee88886666%%%%%%%%    @@@@           ",
"            @@@@    %%%%%%%%66668888eeeeXXXXXXXXqqqqqqqqqqqqXXXXXXXXeeee88886666%%%%%%%%    @@@@           ",
"                        %%%%<<<<8888qqqq********qqqqqqqqqqqq********qqqq8888<<<<%%%%                       ",
"                        %%%%<<<<8888qqqq********qqqqqqqqqqqq********qqqq8888<<<<%%%%                       ",
"                        %%%%<<<<8888qqqq********qqqqqqqqqqqq********qqqq8888<<<<%%%%                       ",
"                        %%%%<<<<8888qqqq********qqqqqqqqqqqq********qqqq8888<<<<%%%%                       ",
"                            %%%%66668888qqqqqqqqqqqqqqqqqqqqqqqqqqqq88886666%%%%                           ",
"                            %%%%66668888qqqqqqqqqqqqqqqqqqqqqqqqqqqq88886666%%%%                           ",
"                            %%%%66668888qqqqqqqqqqqqqqqqqqqqqqqqqqqq88886666%%%%                           ",
"                            %%%%66668888qqqqqqqqqqqqqqqqqqqqqqqqqqqq88886666%%%%                           ",
"                            &&&&%%%%<<<<6666888888888888888888886666<<<<%%%%&&&&                           ",
"                            &&&&%%%%<<<<6666888888888888888888886666<<<<%%%%&&&&                           ",
"                            &&&&%%%%<<<<6666888888888888888888886666<<<<%%%%&&&&                           ",
"                            &&&&%%%%<<<<6666888888888888888888886666<<<<%%%%&&&&                           ",
"                        &&&& 000::::%%%%%%%%%%%%%%%%%%%%%%%%%%%%%%%%%%%%::::    &&&&                       ",
"                        &&&& 000::::%%%%%%%%%%%%%%%%%%%%%%%%%%%%%%%%%%%%::::    &&&&                       ",
"                        &&&&0000::::%%%%%%%%%%%%%%%%%%%%%%%%%%%%%%%%%%%%::::    &&&&                       ",
"                        &&&&0000::::%%%%%%%%%%%%%%%%%%%%%%%%%%%%%%%%%%%%::::    &&&&                       ",
"                    &&&&   0eeee::::::::::::OOOO5555&&&&5555OOOO::::::::::::        &&&&                   ",
"                    &&&&   0eeee::::::::::::OOOO5555&&&&5555OOOO::::::::::::        &&&&                   ",
"                    &&&&  00eeee::::::::::::OOOO5555&&&&5555OOOO::::::::::::     00 &&&&                   ",
"                    &&&&0000eeee::::::::::::OOOO5555&&&&5555OOOO::::::::::::    0000&&&&                   ",
"                %%%%<<<<eeee0000OOOO::::>>>>>>>>555500005555>>>>>>>>::::OOOO   0eeee<<<<%%%%               ",
"                %%%%<<<<eeee0000OOOO::::>>>>>>>>555500005555>>>>>>>>::::OOOO  00eeee<<<<%%%%               ",
"                %%%%<<<<eeee0000OOOO::::>>>>>>>>555500005555>>>>>>>>::::OOOO 000eeee<<<<%%%%               ",
"                %%%%<<<<eeee0000OOOO::::>>>>>>>>555500005555>>>>>>>>::::OOOO 000eeee<<<<%%%%               ",
"                %%%%qqqqqqqq5555oooo::::>>>>>>>>::::OOOO::::>>>>>>>>::::oooo5555qqqqqqqq%%%%               ",
"                %%%%qqqqqqqq5555oooo::::>>>>>>>>::::OOOO::::>>>>>>>>::::oooo5555qqqqqqqq%%%%               ",
"                %%%%qqqqqqqq5555oooo::::>>>>>>>>::::OOOO::::>>>>>>>>::::oooo5555qqqqqqqq%%%%               ",
"                %%%%qqqqqqqq5555oooo::::>>>>>>>>::::OOOO::::>>>>>>>>::::oooo 555qqqqqqqq%%%%               ",
"                %%%%qqqq8888%%%%ooooOOOO::::>>>>OOOOooooOOOO>>>>::::OOOOoooo%%%%8888qqqq%%%%               ",
"                %%%%qqqq8888%%%%ooooOOOO::::>>>>OOOOooooOOOO>>>>::::OOOOoooo%%%%8888qqqq%%%%               ",
"                %%%%qqqq8888%%%%ooooOOOO::::>>>>OOOOooooOOOO>>>>::::OOOOoooo%%%%8888qqqq%%%%               ",
"                %%%% qqq8888%%%%ooooOOOO::::>>>>OOOOooooOOOO>>>>::::OOOOoooo%%%%8888qqqq%%%%               ",
"                    %%%%%%%%    ++++----OOOOOOOO333333333333OOOOOOOO----++++    %%%%%%%%                   ",
"                    %%%%%%%%    ++++----OOOOOOOO333333333333OOOOOOOO----++++    %%%%%%%%                   ",
"                    %%%%%%%%    ++++----OOOOOOOO333333333333OOOOOOOO----++++    %%%%%%%%                   ",
"                    %%%%%%%%    ++++----OOOOOOOO333333333333OOOOOOOO----++++    %%%%%%%%                   ",
"                                ++++----44443333------------33334444----++++                               ",
"                                ++++----44443333------------33334444----++++                               ",
"                                ++++----44443333------------33334444----++++                               ",
"                                ++++----44443333------------33334444----++++                               ",
"                                ++++$$$$44443333$$$$$$$$$$$$33334444$$$$++++                               ",
"                                ++++$$$$44443333$$$$$$$$$$$$33334444$$$$++++                               ",
"                                ++++$$$$44443333$$$$$$$$$$$$33334444$$$$++++                               ",
"                                ++++$$$$44443333$$$$$$$$$$$$33334444$$$$++++                               ",
"                                    ++++========++++++++++++========++++                                   ",
"                                    ++++========++++++++++++========++++                                   ",
"                                    ++++========++++++++++++========++++                                   ",
"                                    ++++========++++++++++++========++++                                   ",
"                                    ++++;;;;;;;;++++    ++++;;;;;;;;++++                                   ",
"                                    ++++;;;;;;;;++++    ++++;;;;;;;;++++                                   ",
"                                    ++++;;;;;;;;++++    ++++;;;;;;;;++++                                   ",
"                                    ++++;;;;;;;;++++    ++++;;;;;;;;++++                                   ",
"                                        ++++++++            ++++++++                                       ",
"                                        ++++++++            ++++++++                                       ",
"                                        ++++++++            ++++++++                                       "
};
