/* XPM */
static char *a227cfb0b1e04839bb2b2ec530bccc911rAteOxSMKoREfnq[] = {
/* columns rows colors chars-per-pixel */
"100 100 5 1 ",
"   c None",
"$ c #15192D",
"P c #4294E2",
"o c #73E5F2",
"q c #F7FEEA",
/* pixels */
"                                                                                                    ",
"                                                                                                    ",
"                                                                                                    ",
"                                                                                                    ",
"                                                                                                    ",
"                                                                                                    ",
"                                                                                                    ",
"                                                                                                    ",
"                                                                                                    ",
"                                                                                                    ",
"                                                                                                    ",
"                                                                                                    ",
"                                                                                                    ",
"                                                                                                    ",
"                                                                                                    ",
"                                                                                                    ",
"                                                                                                    ",
"                                                                                                    ",
"                                                                                                    ",
"                                                                                                    ",
"                                                                                                    ",
"                                                                                                    ",
"                                                                                                    ",
"                                                                                                    ",
"                                                                                                    ",
"                                                                                                    ",
"                                                                                                    ",
"                                                                                                    ",
"                                                                                                    ",
"                                 $$$$$$$$$$$$$$$$$$$$$$$$$$$$$$$                                    ",
"                                 $$$$$$$$$$$$$$$$$$$$$$$$$$$$$$$                                    ",
"                                 $$$$$$$$$$$$$$$$$$$$$$$$$$$$$$$                                    ",
"                                 $$$$$$$$$$$$$$$$$$$$$$$$$$$$$$$                                    ",
"                                 $$$$$$$$$$$$$$$$$$$$$$$$$$$$$$$                                    ",
"                                 $$$$$$$$$$$$$$$$$$$$$$$$$$$$$$$                                    ",
"                   $$$$$$$$$$$$$$ooooooooooooooooooooooooooooooo$$$$$$$$$$$$$$$                     ",
"                   $$$$$$$$$$$$$$ooooooooooooooooooooooooooooooo$$$$$$$$$$$$$$$                     ",
"                   $$$$$$$$$$$$$$ooooooooooooooooooooooooooooooo$$$$$$$$$$$$$$$                     ",
"                   $$$$$$$$$$$$$$ooooooooooooooooooooooooooooooo$$$$$$$$$$$$$$$                     ",
"                   $$$$$$$$$$$$$$ooooooooooooooooooooooooooooooo$$$$$$$$$$$$$$$                     ",
"                   $$$$$$$$$$$$$$ooooooooooooooooooooooooooooooo$$$$$$$$$$$$$$$                     ",
"                   $$$$$$$$$$$$$$ooooooooooooooooooooooooooooooo$$$$$$$$$$$$$$$                     ",
"       $$$$$$$$$$$oooooooooooooooqqqqqqqqqqqqqPPPPPPPPPPPPPPPPPPooooooooooooooo$$$$$$$$$$$$$        ",
"       $$$$$$$$$$$oooooooooooooooqqqqqqqqqqqqqPPPPPPPPPPPPPPPPPPooooooooooooooo$$$$$$$$$$$$$        ",
"       $$$$$$$$$$$oooooooooooooooqqqqqqqqqqqqqPPPPPPPPPPPPPPPPPPooooooooooooooo$$$$$$$$$$$$$        ",
"       $$$$$$$$$$$oooooooooooooooqqqqqqqqqqqqqPPPPPPPPPPPPPPPPPPooooooooooooooo$$$$$$$$$$$$$        ",
"       $$$$$$$$$$$oooooooooooooooqqqqqqqqqqqqqPPPPPPPPPPPPPPPPPPooooooooooooooo$$$$$$$$$$$$$        ",
"       $$$$$$$$$$$oooooooooooooooPPPPPPPPPPPPPPPPPPPPPPPPPPPPPPPooooooooooooooo$$$$$$$$$$$$$        ",
"       $$$$$$$$$$$oooooooooooooooPPPPPPPPPPPPPPPPPPPPPPPPPPPPPPPooooooooooooooo$$$$$$$$$$$$$        ",
"       $$$$$$$$$$$oooooooooooooooPPPPPPPPPPPPPPPPPPPPPPPPPPPPPPPooooooooooooooo$$$$$$$$$$$$$        ",
"       $$$$$$$$$$$oooooooooooooooPPPPPPPPPPPPPPPPPPPPPPPPPPPPPPPooooooooooooooo$$$$$$$$$$$$$        ",
"       $$$$$$$$$$$oooooooooooooooPPPPPPPPPPPPPPPPPPPPPPPPPPPPPPPooooooooooooooo$$$$$$$$$$$$$        ",
"       $$$$$$$$$$$oooooooooooooooPPPPPPPPPPPPPPPPPPPPPPPPPPPPPPPooooooooooooooo$$$$$$$$$$$$$        ",
"       $$$$$$$$$$$oooooooooooooooPPPPPPPPPPPPPPPPPPPPPPPPPPPPPPPooooooooooooooo$$$$$$$$$$$$$        ",
"       $$$$$$$$$$$oooooooooooooooPPPPPPPPPPPPPPPPPPPPPPPPPPPPPPPooooooooooooooo$$$$$$$$$$$$$        ",
"       $$$$$$$$$$$oooooooooooooooPPPPPPPPPPPPPPPPPPPPPPPPPPPPPPPooooooooooooooo$$$$$$$$$$$$$        ",
"                  $$$$$$$$$$$$$$$ooooooooooooooooooooooooooooooo$$$$$$$$$$$$$$$                     ",
"                  $$$$$$$$$$$$$$$ooooooooooooooooooooooooooooooo$$$$$$$$$$$$$$$                     ",
"                  $$$$$$$$$$$$$$$ooooooooooooooooooooooooooooooo$$$$$$$$$$$$$$$                     ",
"                  $$$$$$$$$$$$$$$ooooooooooooooooooooooooooooooo$$$$$$$$$$$$$$$                     ",
"                  $$$$$$$$$$$$$$$ooooooooooooooooooooooooooooooo$$$$$$$$$$$$$$$                     ",
"                  $$$$$$$$$$$$$$$ooooooooooooooooooooooooooooooo$$$$$$$$$$$$$$$                     ",
"                  $$$$$$$$$$$$$$$ooooooooooooooooooooooooooooooo$$$$$$$$$$$$$$$                     ",
"                                 $$$$$$$$$$$$$$$$$$$$$$$$$$$$$$$                                    ",
"                                 $$$$$$$$$$$$$$$$$$$$$$$$$$$$$$$                                    ",
"                                 $$$$$$$$$$$$$$$$$$$$$$$$$$$$$$$                                    ",
"                                 $$$$$$$$$$$$$$$$$$$$$$$$$$$$$$$                                    ",
"                                 $$$$$$$$$$$$$$$$$$$$$$$$$$$$$$$                                    ",
"                                 $$$$$$$$$$$$$$$$$$$$$$$$$$$$$$$                                    ",
"                                                                                                    ",
"                                                                                                    ",
"                                                                                                    ",
"                                                                                                    ",
"                                                                                                    ",
"                                                                                                    ",
"                                                                                                    ",
"                                                                                                    ",
"                                                                                                    ",
"                                                                                                    ",
"                                                                                                    ",
"                                                                                                    ",
"                                                                                                    ",
"                                                                                                    ",
"                                                                                                    ",
"                                                                                                    ",
"                                                                                                    ",
"                                                                                                    ",
"                                                                                                    ",
"                                                                                                    ",
"                                                                                                    ",
"                                                                                                    ",
"                                                                                                    ",
"                                                                                                    ",
"                                                                                                    ",
"                                                                                                    ",
"                                                                                                    ",
"                                                                                                    ",
"                                                                                                    ",
"                                                                                                    ",
"                                                                                                    "
};
