/* XPM */
static char *bf58d9920080405cbf3a49e2e742ff72V9R4O7IPCmdnOvl5[] = {
/* columns rows colors chars-per-pixel */
"100 100 8 1 ",
"  c None",
". c #15182C",
"X c #9F3A47",
"o c #D35242",
"O c #E7B657",
"+ c #FCEE91",
"@ c #ECECEC",
"# c #F7FEEA",
/* pixels */
"                                                                                                    ",
"                                                                                                    ",
"                                                                                                    ",
"                                                                                                    ",
"                                                                                                    ",
"                                                                                                    ",
"                                                                                                    ",
"                                                                                                    ",
"                                                                                                    ",
"                                                                                                    ",
"                                                                                                    ",
"                                                                                                    ",
"                                                                                                    ",
"                                                                                                    ",
"                                                                                                    ",
"                                                                                                    ",
"                                                                                                    ",
"                                                                                                    ",
"                                                                                                    ",
"                                                                                                    ",
"                                                                                                    ",
"                                                                                                    ",
"                                                                                                    ",
"                                                                                                    ",
"                           .......                                 .......                          ",
"                          ........                                ........@                         ",
"                          ........                                ........@                         ",
"                          ........                                ........@@@@                      ",
"                      ....++++........................................++++....@                     ",
"                      ....++++........................................++++....@                     ",
"                      ....++++........................................++++....@                     ",
"                      ....++++........................................++++....@                     ",
"                      ....++++....XXXXXXXXXXXXXXXXXXXXXXXXXXXXXXXX....++++....@                     ",
"                      ....++++....XXXXXXXXXXXXXXXXXXXXXXXXXXXXXXXX....++++....@                     ",
"                      ....++++....XXXXXXXXXXXXXXXXXXXXXXXXXXXXXXXX....++++....@                     ",
"                      ....++++....XXXXXXXXXXXXXXXXXXXXXXXXXXXXXXXX....++++....@                     ",
"                      .... ###....oooooooooooooooooooooooooooooooo....####....@                     ",
"                      ....    ....oooooooooooooooooooooooooooooooo....#  #....@                     ",
"                      ....    ....oooooooooooooooooooooooooooooooo....#  #....@                     ",
"                      ....    ....oooooooooooooooooooooooooooooooo....####....@                     ",
"                      ....++++....XXXXXXXXXXXXXXXXXXXXXXXXXXXXXXXX....++++....@                     ",
"                      ....++++....XXXXXXXXXXXXXXXXXXXXXXXXXXXXXXXX....++++....@                     ",
"                      ....++++....XXXXXXXXXXXXXXXXXXXXXXXXXXXXXXXX....++++....@                     ",
"                      ....++++....XXXXXXXXXXXXXXXXXXXXXXXXXXXXXXXX....++++....@                     ",
"                      ....++++....XXXXXXXX................XXXXXXXX....++++....@                     ",
"                      ....++++....XXXXXXXX................XXXXXXXX....++++....@                     ",
"                      ....++++....XXXXXXXX................XXXXXXXX....++++....@                     ",
"                      ....++++....XXXXXXXX................XXXXXXXX....++++....@                     ",
"                      ....++++............################............++++....@                     ",
"                      ....++++............#     ###      #............++++....@                     ",
"                      ....++++............#     ####     #............++++....@                     ",
"                      ....++++............################............++++....@                     ",
"                      ....++++++++++++OOOO++++........++++OOOO++++++++++++....                      ",
"                      ....++++++++++++OOOO++++........++++OOOO++++++++++++....                      ",
"                      ....++++++++++++OOOO++++........++++OOOO++++++++++++....                      ",
"                      ....++++++++++++OOOO++++........++++OOOO++++++++++++....                      ",
"                      ....................++++........++++....................                      ",
"                      ....................++++........++++....................                      ",
"                      ....................++++........++++....................                      ",
"                      ....................++++........++++....................                      ",
"                      ....OOOO....XXXXXXXX....++++++++....XXXXXXXX....OOOO....                      ",
"                      ....OOOO....XXXXXXXX....++++++++....XXXXXXXX....OOOO....                      ",
"                      ....OOOO....XXXXXXXX....++++++++....XXXXXXXX....OOOO....                      ",
"                      ....OOOO....XXXXXXXX....++++++++....XXXXXXXX....OOOO....                      ",
"                      ....++++........................................++++....                      ",
"                      ....++++........................................++++....                      ",
"                      ....++++........................................++++....                      ",
"                      ....++++........................................++++....                      ",
"                      ....++++++++++++++++++++++++++++++++++++++++++++++++....                      ",
"                      ....++++++++++++++++++++++++++++++++++++++++++++++++....                      ",
"                      ....++++++++++++++++++++++++++++++++++++++++++++++++....                      ",
"                      ....++++++++++++++++++++++++++++++++++++++++++++++++....                      ",
"                      ....OOOO........................................OOOO....                      ",
"                      ....OOOO........................................OOOO....                      ",
"                      ....OOOO........................................OOOO....                      ",
"                      ....    .   ....................................OOOO....                      ",
"                                                                                                    ",
"                                                                                                    ",
"                                                                                                    ",
"                                                                                                    ",
"                                                                                                    ",
"                                                                                                    ",
"                                                                                                    ",
"                                                                                                    ",
"                                                                                                    ",
"                                                                                                    ",
"                                                                                                    ",
"                                                                                                    ",
"                                                                                                    ",
"                                                                                                    ",
"                                                                                                    ",
"                                                                                                    ",
"                                                                                                    ",
"                                                                                                    ",
"                                                                                                    ",
"                                                                                                    ",
"                                                                                                    ",
"                                                                                                    ",
"                                                                                                    ",
"                                                                                                    ",
"                                                                                                    ",
"                                                                                                    "
};
