/* XPM */
static char *e193b22487ea4c5b9346c569d16077femdzlX9ZFgVpNIWLO[] = {
/* columns rows colors chars-per-pixel */
"15 20 2 1 ",
"  c None",
". c black",
/* pixels */
"               ",
"               ",
"               ",
"               ",
"    ......     ",
"   ........    ",
"   ..    ...   ",
"   ..    ...   ",
"   ....  ..    ",
"    .......    ",
"   ..  .....   ",
"  ..      ..   ",
"  ...     ..   ",
"   ...   ...   ",
"   ........    ",
"     ....      ",
"               ",
"               ",
"               ",
"               "
};
