/* XPM */
static char *_8002a342f604e91998a27b0c600e129Y5VPocCXuVxMLzFN[] = {
/* columns rows colors chars-per-pixel */
"15 20 2 1 ",
"  c None",
". c black",
/* pixels */
"               ",
"               ",
"               ",
"               ",
"     ......    ",
"    ........   ",
"   ...    ..   ",
"   ..     ...  ",
"   ..     ...  ",
"   ...   ....  ",
"    .........  ",
"     .... ..   ",
"         ...   ",
"    .   ...    ",
"    ......     ",
"     ...       ",
"               ",
"               ",
"               ",
"               "
};
