/* XPM */
static char *_5504f6b72174abb95f35ee3b6afcdb7IYr6BjeGY6fS9QRs[] = {
/* columns rows colors chars-per-pixel */
"106 100 6 1 ",
"  c None",
". c #15182C",
"X c #9F3A47",
"o c #696F96",
"O c #A4A7C0",
"+ c #DFE0E7",
/* pixels */
"                                                                                                          ",
"                                                                                                          ",
"                                                                                                          ",
"                                    ....................................                                  ",
"                                    ....................................                                  ",
"                                    ....................................                                  ",
"                                    ....................................                                  ",
"                                    ....................................                                  ",
"                                    ....................................                                  ",
"                              ......OOOOOO++++++++++++++++++++++++OOOOOO......                            ",
"                              ......OOOOOO++++++++++++++++++++++++OOOOOO......                            ",
"                              ......OOOOOO++++++++++++++++++++++++OOOOOO......                            ",
"                              ......OOOOOO++++++++++++++++++++++++OOOOOO......                            ",
"                              ......OOOOOO++++++++++++++++++++++++OOOOOO......                            ",
"                              ......OOOOOO++++++++++++++++++++++++OOOOOO......                            ",
"                        ......OOOOOO++++++++++++++++++++++++++++++++++++OOOOOO......                      ",
"                        ......OOOOOO++++++++++++++++++++++++++++++++++++OOOOOO......                      ",
"                        ......OOOOOO++++++++++++++++++++++++++++++++++++OOOOOO......                      ",
"                        ......OOOOOO++++++++++++++++++++++++++++++++++++OOOOOO......                      ",
"                        ......OOOOOO++++++++++++++++++++++++++++++++++++OOOOOO......                      ",
"                        ......OOOOOO++++++++++++++++++++++++++++++++++++OOOOOO......                      ",
"                        ......OOOOOO++++++++++++++++++++++++++++++++++++OOOOOO......                      ",
"                        ......OOOOOO++++++++++++++         +++++++++++++OOOOOO......                      ",
"                        ......OOOOOO ++++++++++             ++++++++++++OOOOOO......                      ",
"                        ......OOOOOO   +++++++               +++++++++++OOOOOO......                      ",
"                        ......OOOOOO    ++++++               +++++++++++OOOOOO......                      ",
"                        ......OOOOOO     +++++               +++++++++++OOOOOO......                      ",
"                        ......ooooooOOOOOO++++              ++++++OOOOOOoooooo......                      ",
"                        ......ooooooOOOOOO+++++             ++++++OOOOOOoooooo......                      ",
"                        ......ooooooOOOOOO++++++            ++++++OOOOOOoooooo......                      ",
"                        ......ooooooOOOOOO+++++             ++++++OOOOOOoooooo......                      ",
"                        ......ooooooOOOOOO+++++             ++++++OOOOOOoooooo......                      ",
"                        ......ooooooOOOOOO+++++             ++++++OOOOOOoooooo......                      ",
"                        ......OOOOOO......OOOOOO            OOOOOO......OOOOOO......                      ",
"                        ......OOOOOO......OOOOOO            OOOOOO......OOOOOO......                      ",
"                        ......OOOOOO......OOOOOO            OOOOOO......OOOOOO......                      ",
"                        ......OOOOOO......OOOOOO           +OOOOOO......OOOOOO......                      ",
"                        ......OOOOOO......OOOOOO++        ++OOOOOO......OOOOOO......                      ",
"                        ......OOOOOO......OOOOOO++++++++++++OOOOOO......OOOOOO......                      ",
"                        ......OOOOOO............OOOOOOOOOOOO............OOOOOO......                      ",
"                        ......OOOOOO............OOOOOOOOOOOO............OOOOOO......                      ",
"                        ......OOOOOO............OOOOOOOOOOOO............OOOOOO......                      ",
"                        ......OOOOOO............OOOOOOOOOOOO............OOOOOO......                      ",
"                        ......OOOOOO............OOOOOOOOOOOO............OOOOOO......                      ",
"                        ......OOOOOO............OOOOOOOOOOOO............OOOOOO......                      ",
"                        ......OOOOOO......XXXXXX            XXXXXX......OOOOOO......                      ",
"                        ......OOOOOO......XXXXXX            XXXXXX......OOOOOO......                      ",
"                        ......OOOOOO......XXXXXX            XXXXXX......OOOOOO......                      ",
"                        ......OOOOOO......XXXXXX            XXXXXX......OOOOOO......                      ",
"                        ......OOOOOO......XXXXXX            XXXXXX......OOOOOO......                      ",
"                        ......OOOOOO......XXXXXX            XXXXXX......OOOOOO......                      ",
"                              ......OOOOOO++++++oooooooooooo++++++OOOOOO......                            ",
"                              ......OOOOOO++++++oooooooooooo++++++OOOOOO......                            ",
"                              ......OOOOOO++++++oooooooooooo++++++OOOOOO......                            ",
"                              ......OOOOOO++++++oooooooooooo++++++OOOOOO......                            ",
"                              ......OOOOOO++++++oooooooooooo++++++OOOOOO......                            ",
"                              ......OOOOOO++++++oooooooooooo++++++OOOOOO......                            ",
"                        ............++++++......            ......++++++............                      ",
"                        ............++++++......            ......++++++............                      ",
"                        ............++++++......            ......++++++............                      ",
"                        ............++++++......            ......++++++............                      ",
"                        ............++++++......            ......++++++............                      ",
"                        ............ +++++......            ......++++++............                      ",
"                  ......            ....................................            ......                ",
"                  ......            ....................................            ......                ",
"                  ......            ....................................            ......                ",
"                  ......            ....................................            ......                ",
"                  ......            ....................................            ......                ",
"                  ......            ....................................            ......                ",
"            ......      OOOOOO......ooooooOOOOOO            OOOOOOoooooo......OOOOO       ......          ",
"            ......      OOOOOO......ooooooOOOOOO            OOOOOOoooooo......OOOOOO      ......          ",
"            ......      OOOOOO......ooooooOOOOOO            OOOOOOoooooo......OOOOOO      ......          ",
"            ......      OOOOOO......ooooooOOOOOO            OOOOOOoooooo......OOOOOO      ......          ",
"            ......      OOOOOO......ooooooOOOOOO            OOOOOOoooooo......OOOOOO      ......          ",
"            ......      OOOOOO......ooooooOOOOOO            OOOOOOoooooo......OOOOOO      ......          ",
"            ......            ......OOOOOO+++   oooooooooooo      OOOOOO......            ......          ",
"            ......            ......OOOOOO++    oooooooooooo      OOOOOO......            ......          ",
"            ......            ......OOOOOO++    oooooooooooo      OOOOOO......            ......          ",
"            ......            ......OOOOOO++    oooooooooooo      OOOOOO......            ......          ",
"            ......            ......OOOOOO++    oooooooooooo      OOOOOO......            ......          ",
"            ......            ......OOOOOO++    oooooooooooo      OOOOOO......            ......          ",
"                  ........................ooooooOOOOOOOOOOOOoooooo........................                ",
"                  ........................ooooooOOOOOOOOOOOOoooooo........................                ",
"                  ........................ooooooOOOOOOOOOOOOoooooo........................                ",
"                  ........................ooooooOOOOOOOOOOOOoooooo........................                ",
"                  ........................ooooooOOOOOOOOOOOOoooooo........................                ",
"                  ........................ooooooOOOOOOOOOOOOoooooo........................                ",
"                              ......OOOOOOOOOOOO............OOOOOOOOOOOO......                            ",
"                              ......OOOOOOOOOOOO............OOOOOOOOOOOO......                            ",
"                              ......OOOOOOOOOOOO............OOOOOOOOOOOO......                            ",
"                              ......OOOOOOOOOOOO............OOOOOOOOOOOO......                            ",
"                              ......OOOOOOOOOOOO............OOOOOOOOOOOO......                            ",
"                              ......OOOOOOOOOOOO............OOOOOOOOOOO ......                            ",
"                                    ............            ............                                  ",
"                                    ............            ............                                  ",
"                                    ............            ............                                  ",
"                                    ............            ............                                  ",
"                                    ............            ............                                  ",
"                                    ............            ............                                  ",
"                                                                                                          ",
"                                                                                                          ",
"                                                                                                          "
};
