/* XPM */
static char *_ece2abe1dad4b908544beb5b7acf36awjXkBVm43NoZbGrS[] = {
/* columns rows colors chars-per-pixel */
"85 20 2 1 ",
"  c None",
". c black",
/* pixels */
"                                                                                     ",
"                                                                                     ",
"   ...        ...         ........       ...       ...    .........                  ",
"   ....      ....       ............     ....      ...    .........                  ",
"   ....     .....      ..............    ....     ....    .........                  ",
"   .....    .....      ....      ....     ...     ...     ...                        ",
"   ......  ......     ....        ....    ....    ...     ...                        ",
"   ......  ......     ...         ....    ....   ....     ...                        ",
"   .......... ...     ...          ...     ...   ...      .......              ....  ",
"   ... ...... ...    ....          ...     ....  ...      .......              ....  ",
"   ... .....  ...    ....          ...     .... ....      .......              ....  ",
"   ...  ....  ...    ....          ...      ... ...       ...                        ",
"   ...   ..   ...     ...          ...      .......       ...                        ",
"   ...   ..   ...     ....        ....       ......       ...                        ",
"   ...        ...     .....      ....        .....        ...                        ",
"   ...        ...      ......  ......        .....        .........            ....  ",
"   ...        ...       ............          ....        .........            ....  ",
"   ...        ...        .........            ...        ..........            ....  ",
"   ..          ..          .....               ..         .      .              ..   ",
"                                                                                     "
};
