/* XPM */
static char *_485d1a281d2401e9ce05e778bcb298ez5C6muwBNtBfQfhj[] = {
/* columns rows colors chars-per-pixel */
"32 32 11 1 ",
"  c None",
". c #593D29",
"X c #79553A",
"o c #6C6C6C",
"O c #856B3A",
"+ c #966C4A",
"@ c #907540",
"# c #998043",
"$ c #AA8D4A",
"% c #B9855C",
"& c gray53",
/* pixels */
"                                ",
"                                ",
"$##@$###$###$###$##$#@##$##$##$#",
"$#@#$@#$###@$@##$@#@##@##$#$@###",
"##@$#O#$##@##O#@##$O@#@$#$##@$#@",
"#@#$@O##@#.@#O#O#$#O#@#$@#O#O$@O",
"@oO#@O@$@@X.#.#@#$@O#O$#@@.@O#OX",
"O+Oo@XO#OXXX@X.O@#O.@O#@O@.+X@.+",
"X+XXO+.#OX+%OXXOX#O.OX#OoOXX+.X+",
"+XX+X++@XX%++X.X+O..XXOo.OX+XXXX",
"XX.X++XOXX+XXXX..X.XXX..XXXX.XX+",
"%+..X++XXoX+XXX+XXXXX+X...X+XX+%",
"+X.X.XXX&&oXXX+%%XXX%%%X.X+%+X%+",
"+XXXXXX+o&XX.XX%++.X+%+%XX%+XX+X",
"XX.XX+%%%+%+X.X+%+X.X+++XXXX+X++",
"+%X.%%+%+X++XXXX+X+X++XX+XXXX++X",
"%++X+%++X++X+X.XX+++%++XXX.X..XX",
"X+XXX++XXX+XX...XX+++X..XXX..X+X",
"XXX+..XXX.X...XXX+XXX.XX+%%X.%%X",
"XX+%X..XXX..X+X.XX.XXXX%%++%Xo++",
".X+++.XX+%+X+%%X..X++X.+%+%+&&oX",
"XXX+XXX+%%%+%+++.X+%%%.X++X+o&X+",
"%+XXXX++++%%X+XX&o%+%+X.X+XXXoXX",
"+XXX.XXX+%+%XX+ooo+++X+X.X+XX..X",
"XX..XXX++X++%XXXoXX++XXXXXXX+%X.",
"XXX.%X.X+XX++%XXXX++XX+XXXX+%+%+",
"XX+%+XX.XX++X+++X.XX%%X..X+%%++X",
"+XX+X.XXXXX.+++XXX..X+..XX++X+++",
"XXX..XXXX..XXX.X%%X.X.X++XXX++X+",
"X+X.X+%%XX..X&X%%+++XX++XXXXX+X.",
"+XXX%%++++XX&&oX+%XX.XXX++++X..X",
"++X++%+X+XXXo&XX+X+XX.X++X+++.X+"
};
