/* XPM */
static char *bbb37ea12fa54c5ea95e4373ced7771aSuGplb4Ae4sm3wAi[] = {
/* columns rows colors chars-per-pixel */
"32 32 6 1 ",
"  c #B9855C",
". c gray53",
"X c #966C4A",
"o c #6C6C6C",
"O c #79553A",
"+ c #593D29",
/* pixels */
"  OOXXXOOOX  XXOOOXXO++OOX  XOX ",
" XXO XO+OX XXOXXOXO  O++O  XOO X",
"XOX XOOOOOXXOOOO+O  XXOO XOXO++O",
"OOXXO++OOOOO..++OOOXXOOOXXX++O++",
"X OO+O++X Oo.oOX  OOOO+OO++OX OO",
" XoOOO+O XXOoO  XX OO+O O+OX XXO",
"Xo.o XOOOX++OO X OXXO  XXOX  OXO",
"XXoo  XOOO+OOOXXXXOOOOXoOOXXXXOX",
"OXOOXX  O+X OOOXOXXO+Oo.oOOOXO+X",
"XOOXOXXXOO XXO+OXO++OOoo+OOXO++O",
"OO+OXXOOOOXOOOO++O+OOO++OOOO+OOX",
" X++OXXOOoOXOOOXOOOOOXO+++OXOOX ",
"XO+O+OOO..oOOOX  OOO   O+OX XO X",
"XOOOOOOXo.OO+OO XX+OX X OO XOOXO",
"OO+OOX   X XO+OX XO+OXXXOOOOXOXX",
"X O+  X XOXXOOOOXOXOXXOOXOOOOXXO",
" XXOX XXOXXOXO+OOXXX XXOOO+O++OO",
"OXOOOXXOOOXOO+++OOXXXO++OOO++OXO",
"OOOX++OOO+O+++OOOXOOO+OOX  O+  O",
"OOX O++OOO++OXO+OO+OOOO  XX OoXX",
"+OXXX+OOX XOX  O++OXXO+X X X..oO",
"OOOXOOOX   X XXX+OX   +OXXOXo.OX",
" XOOOOXXXX  OXOO.o X XO+OXOOOoOO",
"XOOO+OOOX X OOXoooXXXOXO+OXOO++O",
"OO++OOOXXOXX OOOoOOXXOOOOOOOX O+",
"OOO+ O+OXOOXX OOOOXXOOXOOOOX X X",
"OOX XOO+OOXXOXXXO+OO  O++OX  XXO",
"XOOXO+OOOOO+XXXOOO++OX++OOXXOXXX",
"OOO++OOOO++OOO+O  O+O+OXXOOOXXOX",
"OXO+OX  OO++O.O  XXXOOXXOOOOOXO+",
"XOOO  XXXXOO..oOX OO+OOOXXXXO++O",
"XXOXX XOXOOOo.OOXOXOO+OXXOXXX+OX"
};
