/* XPM */
static char *ad431f98c1cc4a8ca5b9b79e2866ffc8Fq09fXfKrKyqoe0m[] = {
/* columns rows colors chars-per-pixel */
"32 32 5 1 ",
"  c #AA8D4A",
". c #998043",
"X c #907540",
"o c #8B703D",
"O c #856B3A",
/* pixels */
"X.o.OX.X.  .XX.XXO.XoXXXX XXXOX ",
"X.X.XOX.XX. XX XOX.Xo.X  XX.OX.X",
".XOX.XX.X.Xo.XX.XXXo.OXXX..  .XX",
"XXXOXX.X XoXXXX.XXo.XX.XXX .. XO",
"o.XO .XX .XX.XoXOXoXX X..OOXXXOX",
"oX XX  .XXXXX.XoXo.. XXXXX..XXo.",
"XoX.OoXX..XoX .XX.OXXO  XXXX.X.O",
"oXOoX.oXXoXOXX .oX.oOXXX OXXXooX",
"oX..X.oXoX.XOX oXOXoX.XX..OX.X.X",
"X.OXXoX XX.XOX XoXOXX.X.XXoXX.X.",
"XOXX.XoX  X.oOX XXOX.XOX.XX.OXX.",
"OX..XOoX.. .XoXXO.XXXXXoX .XXOXO",
"oOooXOXoo. X..XXXO.X .XX.X .Xo.X",
"X.XXXo.o.X..XX.XXo.. .OoX.OOXXX.",
". .ooX.oX.X OXX.XXX XOXOX.XXOXX.",
".X .XXO.oXo.XOX X.X.X.XXoOXXX XX",
"X.XXOXO.XoX..X.X X X.XX.OX.X XoX",
"XXXXOXX .o.Xo.X.X...X. OXX.XXoX ",
"XXo.XOX .X.XoX.XXXOXX.X..XX.XoX ",
"X.o.XX XX.X XoXoO.XO. X XXoXXX X",
"..Xo.X O.X..XXXXXO.OXX. Xo ..XXX",
".oXXXO.X.oXXo..X.XXXOXX.Xo. X.X.",
"Xo.XXO.XoXX.oXXX ..OX. X.X. . .X",
".Xo.O.X.oX.OXo.X. X..Xo.XXX.X XX",
"XoX X.XXX.OX. XX.X.XX .ooOXX X.X",
"oXX .XXOXXXXXX .XXX. .X.O..oXXX.",
"oX XXX.XOX XoXXOXoXX.XoXXooXXXOX",
"XXX.X.XXXX XXoOXXOXXXX.oOXX.XoXO",
".XX.X.XXX ..XXXXOXX.XOX.XXXX.XXX",
"oX.XXXX XXXX..XX.  XOX oX.X.oX..",
"XoXoX..X O.XXXX.X..XO XOX. Xo.XX",
".XXXooX. XO.X..XXoXXXXoXXXXoXXXX"
};
