/* XPM */
static char *_aec2ef48693420be37c7cd986633ac34OVfJOgA1QaKtV9K[] = {
/* columns rows colors chars-per-pixel */
"32 32 18 1 ",
"  c #F7FEFE",
". c #F0FDFD",
"X c white",
"o c #D7EFEF",
"O c #B2D5D5",
"+ c #78554D",
"@ c #7E8969",
"# c #563D38",
"$ c #956C5D",
"% c #B38273",
"& c #593D29",
"* c #966C4A",
"= c #79553A",
"- c #858598",
"; c #B9855C",
": c #6C6C7E",
"> c #6C6C6C",
", c gray53",
/* pixels */
" ..  ..  .  XXXXXXX  .   XXXX . ",
"  XX.  ..  XX X  XXXX . XXX XX .",
".XX X XX .  XXXXX  XXXXX X XXXX.",
". XXXXX X XXX XX .XXX   . XX X  ",
" .  X XXXXX .. XX .  X . X  .  .",
".  X . XX .X oo .. .. .o..o..o..",
"o . .o. XXo . .o oo.o.o  o. o .o",
"..o.o  X .o. X  . oo. .o.oo..o.o",
"o.Oo.o. .o .o oXo.Ooo.OOoOo.oOoO",
"OooOoOo.o.Oo.o. .Oo.OooOO+@OooOO",
"+OoOO@OoO.oOOooOooOooO##+++@OO+$",
"%$O#+$@OooOoOOO$+OOOO@+#&&+$++$%",
"*+++#=+@-OOO#+$%%++O@%%+&=*;*=;*",
"*=++==+$:-+##==;*$#+$;*;==;*==*=",
"==&==*;%%$%$=&=*;*=&=***====*=**",
"*;=&;;*;*=**====*=*=**==*====**=",
";**=*;**=**=*=&==***;**===&=&&==",
"=*===**===*==&&&==***=&&===&&=*=",
"===*&&===&=&&&===*===&==*;;=&;;=",
"==*;=&&===&&=*=&==&====;;**;=>**",
"&=***&==*;*=*;;=&&=**=&*;*;*,,>=",
"===*===*;;;*;***&=*;;;&=**=*>,=*",
";*====****;;=*==,>;*;*=&=*===>==",
"*===&===*;*;==*>>>***=*=&=*==&&=",
"==&&===**=**;===>==**=======*;=&",
"===&;=&=*==**;====**==*====*;*;*",
"==*;*==&==**=***=&==;;=&&=*;;**=",
"*==*=&=====&***===&&=*&&==**=***",
"===&&====&&===&=;;=&=&=**===**=*",
"=*=&=*;;==&&=,=;;***==**=====*=&",
"*===;;****==,,>=*;==&===****=&&=",
"**=**;*=*===>,==*=*==&=**=***&=*"
};
