/* XPM */
static char *b15f32c0ebbd4f8bbfa0891452d465ef4nzLriBGjW0T0J2g[] = {
/* columns rows colors chars-per-pixel */
"32 32 11 1 ",
"  c #B9855C",
". c gray53",
"X c #64A039",
"o c #966C4A",
"O c #588E34",
"+ c #538631",
"@ c #6C6C6C",
"# c #4A782B",
"$ c #79553A",
"% c #3E6723",
"& c #593D29",
/* pixels */
"XO+#XO+OX++OXO++XO+XO#+OXO+XO+XO",
"X+#+X#OXO+O#X#+OX#+#O+#OOXOX#O+O",
"+O#X+%+X++#O+%O#+OX%#+#X+XOO#X+#",
"+#OX#%++#+&#O%+%+X+%O#+X#O#O%X#%",
"#&%O#%#X##&&O&O#+X#%O%X+##&#%+%&",
"%&%&#&%+%&&&#&&%#+%&#%+#%#&&&#&&",
"&@.@%&&+%&$&%&&%&+%&%&+%&%&$&&&$",
"oo@@&$&#&$$$&$&&&%&&&$%@&%&o$&&o",
"$o$$oo&%&$o $$$&$&&&&$@.@&$$o&$o",
"o$$o$oo&$$ oo$&$o$&&$$@@&$$o$$$$",
"$$&$oo$$$$o$$$$&&$&$$$&&$$$$&$$o",
" o&&$oo$$@$o$$$o$$$$$o$&&&$o$$o ",
"o$&$&$$$..@$$$o  $$$   $&$o o$ o",
"o$$$$$$o@.$$&$$ oo&$o o $$ o$$o$",
"$$&$$o   o o$&$o o$&$ooo$$$$o$oo",
"o $&  o o$oo$$$$o$o$oo$$o$$$$oo$",
" oo$o oo$oo$o$&$$ooo oo$$$&$&&$$",
"$o$$$oo$$$o$$&&&$$ooo$&&$$$&&$o$",
"$$$o&&$$$&$&&&$$$o$$$&$$o  $&  $",
"$$o $&&$$$&&$o$&$$&$$$$  oo $@oo",
"&$ooo&$$o o$o  $&&$oo$&o o o..@$",
"$$$o$$$o   o ooo&$o   &$oo$o@.$o",
" o$$$$oooo  $o$$.@ o o$&$o$$$@$$",
"o$$$&$$$o o $$o@@@ooo$o$&$o$$&&$",
"$$&&$$$oo$oo $$$@$$oo$$$$$$$o $&",
"$$$& $&$o$$oo $$$$oo$$o$$$$o o o",
"$$o o$$&$$oo$ooo$&$$  $&&$o  oo$",
"o$$o$&$$$$$&ooo$$$&&$o&&$$oo$ooo",
"$$$&&$$$$&&$$$&$  $&$&$oo$$$oo$o",
"$o$&$o  $$&&$.$  ooo$$oo$$$$$o$&",
"o$$$  oooo$$..@$o $$&$$$oooo$&&$",
"oo$oo o$o$$$@.$$o$o$$&$oo$ooo&$o"
};
